{"title":"Maggie 2015 WEBRip XviD MP3 Idiocracy","uid":11893934,"size":690849635,"categoryP":"video","categoryS":"movies","magnet":"?xt=urn:btih:755182d8be6730dbf6476bf117f78876e71ab168&amp;dn=Maggie+2015+WEBRip+XviD+MP3+Idiocracy&amp;tr=udp%3A%2F%2Ftracker.openbittorrent.com%3A80&amp;tr=udp%3A%2F%2Fopen.demonii.com%3A1337&amp;tr=udp%3A%2F%2Ftracker.coppersurfer.tk%3A6969&amp;tr=udp%3A%2F%2Fexodus.desync.com%3A6969","seeders":10,"leechers":4,"uploader":"Satafakap","files":3,"time":1431098678,"description":"Synopsis / Plot\n\nA teenage girl in the Midwest becomes infected by an outbreak of a disease that slowly turns the infected into cannibalistic zombies. During her transformation, her loving father stays by her side.\n\nDirector: Henry Hobson\nWriter: John Scott 3\nStars: Arnold Schwarzenegger, Abigail Breslin, Joely Richardson\n &lt;a href=&quot;\nhttp://www.imdb.com/title/tt1881002/&quot; rel=&quot;nofollow&quot; target=&quot;_NEW&quot;&gt;\nhttp://www.imdb.com/title/tt1881002/&lt;/a&gt;\n\nGeneral\n\nComplete name       : Maggie.2015.WEBRip.XviD.MP3-Idiocracy.avi\nFormat              : AVI\nFormat/Info         : Audio Video Interleave\nFile size           : 652 MiB\nDuration            : 1h 35mn\nOverall bit rate    : 958 Kbps\nWriting application : VirtualDubMod 1.5.10.3 | www.virtualdub-fr.org\nWriting library     : VirtualDubMod build 2550/release\nSource              : Maggie.2015.720p.WEB-DL.DD5.1.H.264-PLAYNOW - Thanks!\nSample              : Yes\n\nVideo\n\nID                                       : 0\nFormat                                   : MPEG-4 Visual\nFormat profile                           : Advanced Simple@L5\nFormat settings, BVOP                    : 2\nFormat settings, QPel                    : No\nFormat settings, GMC                     : No warppoints\nFormat settings, Matrix                  : Default (H.263)\nMuxing mode                              : Packed bitstream\nCodec ID                                 : XVID\nCodec ID/Hint                            : XviD\nDuration                                 : 1h 35mn\nBit rate                                 : 821 Kbps\nWidth                                    : 640 pixels\nHeight                                   : 264 pixels\nDisplay aspect ratio                     : 2.40:1\nOriginal display aspect ratio            : 2.40:1\nFrame rate                               : 23.976 fps\nColor space                              : YUV\nChroma subsampling                       : 4:2:0\nBit depth                                : 8 bits\nScan type                                : Progressive\nCompression mode                         : Lossy\nBits/(Pixel*Frame)                       : 0.203\nStream size                              : 558 MiB (86%)\nWriting library                          : XviD 64\n\nAudio\n\nID                                       : 1\nFormat                                   : MPEG Audio\nFormat version                           : Version 1\nFormat profile                           : Layer 3\nMode                                     : Joint stereo\nCodec ID                                 : 55\nCodec ID/Hint                            : MP3\nDuration                                 : 1h 35mn\nBit rate mode                            : Constant\nBit rate                                 : 128 Kbps\nChannel(s)                               : 2 channels\nSampling rate                            : 48.0 KHz\nCompression mode                         : Lossy\nStream size                              : 87.0 MiB (13%)\nAlignment                                : Split accross interleaves\nInterleave, duration                     : 42 ms (1.00 video frame)\nInterleave, preload duration             : 500 ms\n\nScreenshots:\n &lt;a href=&quot;\nhttp://i.imgur.com/EERyesV.jpg&quot; rel=&quot;nofollow&quot; target=&quot;_NEW&quot;&gt;\nhttp://i.imgur.com/EERyesV.jpg&lt;/a&gt;\n &lt;a href=&quot;\nhttp://i.imgur.com/bTh6R3f.jpg&quot; rel=&quot;nofollow&quot; target=&quot;_NEW&quot;&gt;\nhttp://i.imgur.com/bTh6R3f.jpg&lt;/a&gt;\n &lt;a href=&quot;\nhttp://i.imgur.com/ssAjzfb.jpg&quot; rel=&quot;nofollow&quot; target=&quot;_NEW&quot;&gt;\nhttp://i.imgur.com/ssAjzfb.jpg&lt;/a&gt;\n &lt;a href=&quot;\nhttp://i.imgur.com/hNRXnuT.jpg&quot; rel=&quot;nofollow&quot; target=&quot;_NEW&quot;&gt;\nhttp://i.imgur.com/hNRXnuT.jpg&lt;/a&gt;\n &lt;a href=&quot;\nhttp://i.imgur.com/iO3AR0T.jpg&quot; rel=&quot;nofollow&quot; target=&quot;_NEW&quot;&gt;\nhttp://i.imgur.com/iO3AR0T.jpg&lt;/a&gt;","torrent":{"xt":"urn:btih:755182d8be6730dbf6476bf117f78876e71ab168","amp;dn":"Maggie+2015+WEBRip+XviD+MP3+Idiocracy","amp;tr":["udp%3A%2F%2Ftracker.openbittorrent.com%3A80","udp%3A%2F%2Fopen.demonii.com%3A1337","udp%3A%2F%2Ftracker.coppersurfer.tk%3A6969","udp%3A%2F%2Fexodus.desync.com%3A6969"],"infoHash":"755182d8be6730dbf6476bf117f78876e71ab168","infoHashBuffer":{"type":"Buffer","data":[117,81,130,216,190,103,48,219,246,71,107,241,23,247,136,118,231,26,177,104]},"announce":[],"urlList":[]}}